<?xml version="1.0" standalone="no"?>
<!DOCTYPE svg PUBLIC "-//W3C//DTD SVG 20010904//EN"
 "http://www.w3.org/TR/2001/REC-SVG-20010904/DTD/svg10.dtd">
<svg version="1.0" xmlns="http://www.w3.org/2000/svg"
 width="1024.000000pt" height="1024.000000pt" viewBox="0 0 1024.000000 1024.000000"
 preserveAspectRatio="xMidYMid meet">
<metadata>
Created by potrace 1.14, written by Peter Selinger 2001-2017
</metadata>
<g transform="translate(0.000000,1024.000000) scale(0.100000,-0.100000)"
fill="#000000" stroke="none">
<path d="M0 5120 l0 -5120 5120 0 5120 0 0 5120 0 5120 -5120 0 -5120 0 0
-5120z m5380 2835 c0 -13 21 -15 129 -15 120 0 129 -1 134 -20 5 -18 14 -20
81 -20 58 0 76 -3 76 -14 0 -15 42 -26 101 -26 28 0 39 -4 39 -15 0 -11 11
-15 41 -15 32 0 42 -4 46 -20 5 -17 14 -20 59 -20 47 0 54 -2 54 -20 0 -16 7
-20 35 -20 23 0 35 -5 35 -14 0 -13 41 -26 86 -26 14 0 24 -6 24 -14 0 -8 15
-17 35 -20 21 -4 35 -13 35 -21 0 -9 10 -15 25 -15 18 0 25 -5 25 -20 0 -16 7
-20 34 -20 25 0 35 -5 39 -20 4 -14 14 -20 35 -20 21 0 31 -6 35 -20 3 -12 14
-20 26 -20 12 0 21 -6 21 -14 0 -8 15 -17 35 -20 21 -4 35 -13 35 -21 0 -8 9
-15 20 -15 13 0 20 -7 20 -20 0 -13 7 -20 20 -20 11 0 20 -7 20 -15 0 -8 14
-17 35 -21 20 -3 35 -12 35 -20 0 -8 7 -14 16 -14 9 0 18 -9 21 -20 3 -11 11
-20 18 -20 7 0 15 -9 18 -20 3 -11 12 -20 20 -20 8 0 17 -9 20 -20 3 -11 12
-20 21 -20 9 0 16 -7 16 -15 0 -8 7 -15 16 -15 9 0 18 -9 21 -20 3 -11 11 -20
18 -20 7 0 15 -9 18 -20 3 -11 12 -20 21 -20 9 0 16 -8 16 -20 0 -13 7 -20 20
-20 13 0 20 -7 20 -20 0 -13 7 -20 20 -20 11 0 20 -7 20 -15 0 -8 6 -15 14
-15 8 0 17 -15 20 -35 4 -21 13 -35 21 -35 8 0 15 -9 15 -20 0 -13 7 -20 20
-20 13 0 20 -7 20 -20 0 -13 7 -20 20 -20 16 0 20 -7 20 -34 0 -25 5 -35 20
-39 12 -3 20 -14 20 -26 0 -12 6 -21 14 -21 8 0 17 -15 20 -35 4 -19 13 -35
20 -35 8 0 17 -16 20 -35 4 -21 13 -35 21 -35 9 0 15 -10 15 -25 0 -15 6 -25
15 -25 8 0 17 -14 21 -35 3 -20 12 -35 20 -35 9 0 14 -12 14 -36 0 -27 5 -37
20 -41 13 -3 20 -14 20 -28 0 -42 12 -85 25 -85 7 0 15 -19 18 -46 2 -26 10
-50 16 -54 7 -4 15 -32 18 -63 4 -36 10 -57 18 -57 8 0 15 -26 20 -75 5 -55
11 -75 21 -75 11 0 14 -16 14 -67 0 -38 3 -132 7 -210 5 -110 9 -143 20 -143
10 0 13 -19 13 -75 0 -56 -3 -75 -13 -75 -14 0 -27 -137 -27 -277 0 -40 -4
-53 -15 -53 -11 0 -15 -13 -15 -54 0 -97 -12 -176 -26 -176 -10 0 -14 -14 -14
-44 0 -63 -11 -106 -26 -106 -10 0 -14 -15 -14 -54 0 -45 -3 -54 -20 -59 -15
-4 -20 -14 -20 -41 0 -24 -5 -36 -14 -36 -13 0 -26 -41 -26 -86 0 -14 -6 -24
-14 -24 -9 0 -17 -15 -21 -40 -4 -25 -12 -40 -21 -40 -9 0 -14 -11 -14 -34 0
-25 -5 -35 -20 -39 -15 -4 -20 -14 -20 -41 0 -25 -4 -36 -15 -36 -8 0 -15 -7
-15 -16 0 -9 -9 -18 -20 -21 -15 -4 -20 -14 -20 -39 0 -27 -4 -34 -20 -34 -13
0 -20 -7 -20 -20 0 -11 -7 -20 -15 -20 -8 0 -17 -14 -21 -35 -3 -19 -12 -35
-19 -35 -7 0 -16 -16 -19 -35 -4 -21 -13 -35 -21 -35 -9 0 -15 -9 -15 -21 0
-12 -8 -23 -20 -26 -11 -3 -20 -14 -20 -24 0 -11 -7 -19 -15 -19 -8 0 -17 -14
-21 -35 -4 -25 -11 -35 -25 -35 -12 0 -19 -7 -19 -20 0 -11 -7 -20 -15 -20 -8
0 -15 -7 -15 -15 0 -8 -9 -15 -20 -15 -13 0 -20 -7 -20 -20 0 -13 -7 -20 -20
-20 -16 0 -20 -7 -20 -35 0 -31 -3 -35 -35 -41 -25 -4 -35 -11 -35 -25 0 -12
-7 -19 -19 -19 -14 0 -21 -10 -25 -35 -4 -21 -13 -35 -21 -35 -8 0 -15 -7 -15
-15 0 -8 -14 -17 -35 -21 -21 -4 -35 -12 -35 -21 0 -8 -9 -17 -20 -20 -11 -3
-20 -12 -20 -20 0 -8 -9 -17 -20 -20 -11 -3 -20 -12 -20 -19 0 -8 -9 -14 -20
-14 -13 0 -20 -7 -20 -20 0 -16 -7 -20 -35 -20 -25 0 -35 -4 -35 -16 0 -9 -9
-18 -20 -21 -11 -3 -20 -11 -20 -18 0 -7 -16 -16 -35 -19 -21 -4 -35 -13 -35
-21 0 -9 -10 -15 -25 -15 -15 0 -25 -6 -25 -15 0 -8 -14 -17 -35 -21 -19 -3
-35 -12 -35 -20 0 -7 -16 -16 -35 -20 -19 -3 -35 -12 -35 -19 0 -8 -17 -16
-40 -20 -25 -4 -40 -12 -40 -21 0 -9 -11 -14 -35 -14 -21 0 -37 -6 -43 -16 -6
-11 -27 -18 -61 -22 l-51 -5 0 119 c0 153 9 224 26 224 11 0 14 18 14 75 0 68
2 75 20 75 16 0 20 7 20 34 0 25 5 35 20 39 12 3 20 14 20 26 0 12 6 21 15 21
8 0 17 14 21 35 3 20 12 35 20 35 8 0 14 9 14 20 0 13 7 20 20 20 16 0 20 7
20 35 0 28 4 35 20 35 13 0 20 7 20 20 0 11 7 20 15 20 11 0 15 11 15 36 0 27
5 37 20 41 18 5 20 14 20 94 0 82 -2 89 -20 89 -11 0 -20 -7 -20 -15 0 -8 -6
-15 -14 -15 -9 0 -17 -15 -21 -40 -4 -25 -12 -40 -21 -40 -8 0 -14 -9 -14 -20
0 -13 -7 -20 -20 -20 -13 0 -20 -7 -20 -20 0 -11 -7 -20 -15 -20 -8 0 -17 -14
-21 -35 -4 -25 -11 -35 -25 -35 -12 0 -19 -7 -19 -20 0 -11 -7 -20 -15 -20 -8
0 -15 -9 -15 -20 0 -13 -7 -20 -20 -20 -13 0 -20 -7 -20 -20 0 -11 -7 -20 -15
-20 -8 0 -17 -14 -21 -35 -4 -25 -11 -35 -25 -35 -12 0 -19 -7 -19 -20 0 -11
-6 -20 -14 -20 -8 0 -17 -15 -20 -35 -4 -21 -13 -35 -21 -35 -10 0 -15 -11
-15 -34 0 -25 -5 -35 -20 -39 -12 -3 -20 -14 -20 -26 0 -12 -6 -21 -15 -21 -8
0 -17 -14 -21 -35 -3 -19 -12 -35 -19 -35 -7 0 -16 -16 -19 -35 -4 -21 -13
-35 -21 -35 -9 0 -15 -10 -15 -25 0 -15 -6 -25 -15 -25 -8 0 -17 -14 -21 -35
-3 -19 -12 -35 -20 -35 -7 0 -16 -15 -19 -34 -5 -22 -14 -36 -26 -39 -10 -3
-19 -12 -19 -21 0 -9 -7 -16 -15 -16 -8 0 -15 -9 -15 -20 0 -13 -7 -20 -20
-20 -13 0 -20 -7 -20 -20 0 -13 -7 -20 -20 -20 -11 0 -20 -7 -20 -15 0 -8 -7
-15 -15 -15 -8 0 -15 -9 -15 -20 0 -13 -7 -20 -20 -20 -13 0 -20 -7 -20 -20 0
-13 -7 -20 -20 -20 -13 0 -20 -7 -20 -20 0 -13 -7 -20 -20 -20 -11 0 -20 -7
-20 -15 0 -8 -7 -15 -16 -15 -9 0 -18 -9 -21 -20 -3 -11 -12 -20 -20 -20 -8 0
-17 -9 -20 -20 -4 -14 -14 -20 -33 -20 -19 0 -29 -6 -33 -20 -4 -15 -14 -20
-41 -20 -24 0 -36 -5 -36 -14 0 -9 -15 -17 -40 -21 -25 -4 -40 -12 -40 -21 0
-8 -7 -14 -16 -14 -9 0 -18 -9 -21 -20 -3 -11 -14 -20 -24 -20 -11 0 -19 -7
-19 -15 0 -8 -14 -17 -35 -21 -19 -3 -35 -12 -35 -19 0 -8 -17 -16 -40 -20
-25 -4 -40 -12 -40 -21 0 -10 -15 -14 -59 -14 -78 0 -121 -9 -121 -26 0 -10
-16 -14 -60 -14 -44 0 -60 4 -60 14 0 17 -31 26 -91 26 -38 0 -48 4 -52 20 -3
11 -12 20 -21 20 -9 0 -16 7 -16 15 0 8 -9 15 -20 15 -13 0 -20 7 -20 20 0 11
-7 20 -15 20 -8 0 -17 14 -21 35 -3 19 -12 35 -19 35 -13 0 -25 42 -25 86 0
15 -6 24 -15 24 -10 0 -15 10 -15 29 0 49 -12 91 -26 91 -12 0 -14 53 -14 305
0 251 2 305 14 305 15 0 26 61 26 141 0 36 4 49 14 49 10 0 16 20 21 75 5 54
11 75 21 75 10 0 14 12 14 39 0 59 11 101 26 101 10 0 14 15 14 55 0 40 4 55
14 55 13 0 26 41 26 86 0 14 6 24 14 24 9 0 17 15 21 40 4 25 12 40 21 40 10
0 14 14 14 55 0 48 2 55 20 55 13 0 20 7 20 20 0 13 -7 20 -20 20 -13 0 -20
-7 -20 -20 0 -11 -7 -20 -15 -20 -8 0 -15 -7 -15 -16 0 -9 -9 -18 -20 -21 -15
-4 -20 -14 -20 -39 0 -27 -4 -34 -20 -34 -17 0 -20 -7 -20 -40 0 -27 -4 -40
-14 -40 -15 0 -26 -30 -26 -72 0 -18 -5 -28 -15 -28 -10 0 -15 -10 -15 -29 0
-49 -12 -91 -26 -91 -10 0 -14 -15 -14 -52 0 -66 -9 -98 -25 -98 -9 0 -14 -22
-17 -66 -3 -49 -9 -69 -21 -76 -13 -7 -17 -23 -17 -63 0 -40 -4 -55 -14 -55
-15 0 -26 -43 -26 -106 0 -31 -4 -44 -14 -44 -10 0 -16 -22 -21 -80 -5 -57
-11 -80 -21 -80 -9 0 -14 -17 -16 -52 -3 -50 -4 -53 -32 -56 -50 -6 -116 8
-116 24 0 8 -9 14 -20 14 -11 0 -20 7 -20 15 0 8 -14 17 -34 20 -22 5 -36 14
-39 26 -4 14 -14 19 -41 19 -29 0 -36 4 -36 20 0 13 -7 20 -20 20 -11 0 -20 6
-20 14 0 8 -15 17 -35 20 -21 4 -35 13 -35 21 0 8 -9 15 -20 15 -13 0 -20 7
-20 20 0 13 -7 20 -20 20 -13 0 -20 7 -20 20 0 13 -7 20 -20 20 -11 0 -20 7
-20 15 0 8 -7 15 -15 15 -8 0 -15 9 -15 20 0 13 -7 20 -20 20 -11 0 -20 7 -20
15 0 8 -14 17 -34 20 -29 6 -35 12 -41 41 -3 20 -12 34 -20 34 -8 0 -15 9 -15
20 0 13 -7 20 -20 20 -13 0 -20 7 -20 20 0 11 -7 20 -15 20 -8 0 -15 7 -15 16
0 9 -9 18 -20 21 -11 3 -20 12 -20 20 0 8 -9 17 -20 20 -13 3 -22 17 -26 39
-3 19 -12 34 -20 34 -8 0 -14 7 -14 16 0 9 -9 18 -20 21 -11 3 -20 14 -20 24
0 11 -7 19 -15 19 -8 0 -17 14 -21 35 -3 20 -12 35 -20 35 -8 0 -14 7 -14 16
0 9 -9 18 -19 21 -12 3 -21 17 -26 39 -3 20 -12 34 -20 34 -8 0 -15 9 -15 20
0 11 -6 20 -14 20 -9 0 -17 15 -21 40 -4 24 -12 40 -20 40 -8 0 -17 15 -21 35
-3 19 -12 35 -19 35 -7 0 -16 16 -19 35 -4 21 -13 35 -21 35 -11 0 -15 12 -15
40 0 33 -3 40 -20 40 -17 0 -20 7 -20 40 0 29 -4 40 -15 40 -10 0 -17 14 -21
40 -4 24 -12 40 -20 40 -9 0 -14 11 -14 28 0 42 -11 72 -26 72 -10 0 -14 15
-14 55 0 39 -4 56 -16 63 -12 7 -18 29 -22 81 -3 47 -9 71 -17 71 -14 0 -25
72 -25 163 0 41 -4 57 -13 57 -11 0 -15 45 -21 214 -9 278 2 576 21 576 9 0
13 14 13 43 0 80 12 147 26 147 10 0 14 14 14 44 0 63 11 106 26 106 10 0 14
15 14 54 0 45 3 54 20 59 15 4 20 14 20 41 0 24 5 36 14 36 13 0 26 41 26 86
0 17 6 24 20 24 13 0 20 7 20 20 0 11 7 20 15 20 11 0 15 11 15 40 0 33 3 40
20 40 16 0 20 7 20 35 0 28 4 35 20 35 16 0 20 7 20 35 0 25 4 35 16 35 9 0
18 9 21 20 3 11 12 20 19 20 9 0 14 12 14 35 0 28 4 35 20 35 13 0 20 7 20 20
0 12 7 20 16 20 9 0 18 9 21 20 3 11 11 20 18 20 8 0 16 17 20 40 4 25 12 40
21 40 8 0 14 7 14 15 0 8 9 15 20 15 13 0 20 7 20 20 0 13 7 20 20 20 13 0 20
7 20 20 0 13 7 20 20 20 13 0 20 7 20 20 0 11 7 20 15 20 8 0 15 6 15 14 0 7
9 16 20 19 11 3 20 12 20 21 0 9 8 16 20 16 13 0 20 7 20 20 0 13 7 20 20 20
13 0 20 7 20 20 0 11 7 20 15 20 8 0 15 7 15 15 0 8 14 17 35 21 21 4 35 12
35 21 0 8 9 17 20 20 11 3 20 12 20 19 0 8 9 14 20 14 13 0 20 7 20 20 0 13 7
20 20 20 11 0 20 6 20 14 0 9 15 17 40 21 25 4 40 12 40 21 0 8 7 14 16 14 9
0 18 9 21 20 4 15 14 20 39 20 27 0 34 4 34 20 0 16 7 20 35 20 28 0 35 4 35
20 0 17 7 20 40 20 33 0 40 3 40 20 0 16 7 20 35 20 23 0 35 5 35 14 0 9 15
17 40 21 25 4 40 12 40 21 0 9 12 14 35 14 28 0 35 4 35 20 0 18 7 20 55 20
40 0 55 4 55 14 0 14 42 26 91 26 19 0 29 5 29 15 0 10 10 15 33 15 47 0 77
10 77 26 0 10 16 14 64 14 82 0 126 9 126 26 0 11 26 14 130 14 109 0 130 2
130 15 0 13 34 15 245 15 211 0 245 -2 245 -15z"/>
<path d="M4180 6796 c0 -9 -15 -17 -40 -21 -23 -4 -40 -12 -40 -20 0 -7 -9
-15 -20 -18 -11 -3 -20 -12 -20 -21 0 -9 -7 -16 -15 -16 -8 0 -15 -7 -15 -16
0 -9 -9 -18 -20 -21 -11 -3 -20 -14 -20 -24 0 -11 -6 -19 -14 -19 -19 0 -26
-45 -26 -164 0 -136 9 -206 26 -206 8 0 14 -9 14 -20 0 -13 7 -20 20 -20 14 0
20 -7 20 -21 0 -19 4 -21 31 -15 17 3 35 6 40 6 5 0 9 7 9 15 0 13 23 15 150
15 127 0 150 2 150 15 0 9 9 15 24 15 13 0 38 3 55 6 27 6 31 10 31 40 0 24 5
34 15 34 12 0 15 19 15 115 0 96 -3 115 -15 115 -11 0 -15 11 -15 36 0 27 -5
37 -20 41 -15 4 -20 14 -20 39 0 27 -4 34 -20 34 -13 0 -20 7 -20 20 0 13 -7
20 -20 20 -11 0 -20 7 -20 15 0 10 -11 15 -35 15 -28 0 -35 4 -35 20 0 18 -7
20 -75 20 -58 0 -75 -3 -75 -14z"/>
<path d="M5950 6796 c0 -9 -15 -17 -40 -21 -23 -4 -40 -12 -40 -20 0 -7 -9
-15 -20 -18 -11 -3 -20 -12 -20 -21 0 -9 -7 -16 -15 -16 -8 0 -15 -7 -15 -16
0 -9 -9 -18 -20 -21 -15 -4 -20 -14 -20 -38 0 -24 -5 -34 -20 -38 -19 -5 -20
-14 -20 -152 0 -138 1 -147 20 -152 11 -3 20 -14 20 -24 0 -15 7 -19 40 -19
29 0 40 -4 40 -15 0 -13 23 -15 150 -15 124 0 150 -3 150 -14 0 -10 16 -17 44
-21 48 -8 66 -2 66 21 0 8 6 14 14 14 13 0 26 41 26 86 0 15 6 24 15 24 12 0
15 19 15 115 0 96 -3 115 -15 115 -9 0 -15 9 -15 24 0 45 -13 86 -26 86 -8 0
-14 9 -14 20 0 13 -7 20 -20 20 -13 0 -20 7 -20 20 0 13 -7 20 -20 20 -11 0
-20 6 -20 14 0 9 -15 17 -40 21 -25 4 -40 12 -40 21 0 11 -16 14 -70 14 -54 0
-70 -3 -70 -14z"/>
<path d="M4900 5664 c0 -9 -8 -18 -19 -21 -19 -5 -31 -60 -31 -145 0 -27 -4
-38 -15 -38 -12 0 -15 -16 -15 -80 0 -73 -2 -80 -20 -80 -11 0 -20 -7 -20 -15
0 -12 -13 -15 -55 -15 l-55 0 0 -55 c0 -48 2 -55 20 -55 13 0 20 -7 20 -20 0
-16 7 -20 35 -20 28 0 35 -4 35 -20 0 -14 7 -20 21 -20 21 0 21 -4 17 -106 -3
-78 -7 -107 -18 -114 -11 -7 -16 -37 -18 -120 -3 -85 -7 -110 -18 -110 -8 0
-14 -9 -14 -20 0 -16 7 -20 35 -20 28 0 35 4 35 20 0 13 7 20 20 20 18 0 20 7
20 75 0 60 3 75 15 75 13 0 15 24 15 158 0 306 12 552 27 552 10 0 13 22 13
95 0 78 -3 95 -15 95 -8 0 -15 -7 -15 -16z"/>
<path d="M5310 5226 c0 -46 -3 -98 -6 -115 l-6 -31 81 0 c74 0 81 2 81 20 0
16 7 20 35 20 28 0 35 4 35 20 0 13 7 20 20 20 18 0 20 7 20 55 l0 55 -109 0
c-100 0 -109 2 -114 20 -3 11 -12 20 -21 20 -13 0 -16 -14 -16 -84z"/>
<path d="M5270 5025 c0 -8 7 -15 15 -15 8 0 15 7 15 15 0 8 -7 15 -15 15 -8 0
-15 -7 -15 -15z"/>
<path d="M5540 4685 c0 -8 7 -15 15 -15 8 0 15 7 15 15 0 8 -7 15 -15 15 -8 0
-15 -7 -15 -15z"/>
<path d="M5577 4664 c-14 -14 -6 -34 13 -34 13 0 20 -7 20 -20 0 -13 7 -20 20
-20 13 0 20 -7 20 -20 0 -11 7 -20 15 -20 10 0 16 -16 21 -50 4 -30 12 -50 19
-50 7 0 15 -18 19 -40 8 -51 36 -56 36 -6 0 25 -5 35 -20 39 -17 4 -20 14 -20
56 0 44 -3 51 -20 51 -15 0 -20 7 -20 25 0 15 -6 25 -14 25 -8 0 -17 14 -21
30 -4 17 -13 30 -20 30 -7 0 -20 2 -27 5 -8 3 -17 2 -21 -1z"/>
<path d="M4590 4425 c0 -8 -7 -15 -15 -15 -8 0 -15 -9 -15 -20 0 -11 7 -20 15
-20 8 0 15 9 15 20 0 13 7 20 20 20 11 0 20 7 20 15 0 8 -9 15 -20 15 -11 0
-20 -7 -20 -15z"/>
<path d="M4520 4345 c0 -8 7 -15 15 -15 8 0 15 7 15 15 0 8 -7 15 -15 15 -8 0
-15 -7 -15 -15z"/>
<path d="M5760 4290 c0 -34 3 -40 21 -40 19 0 21 4 15 31 -3 17 -6 35 -6 40 0
5 -7 9 -15 9 -11 0 -15 -11 -15 -40z"/>
<path d="M5800 4165 c0 -42 3 -55 15 -55 12 0 15 13 15 55 0 42 -3 55 -15 55
-12 0 -15 -13 -15 -55z"/>
<path d="M5840 3936 c0 -114 2 -136 15 -136 12 0 15 16 15 80 0 73 2 80 20 80
17 0 20 7 20 50 0 33 -4 50 -12 50 -7 0 -23 3 -35 6 l-23 6 0 -136z"/>
<path d="M5043 3860 c-3 -11 -11 -20 -18 -20 -19 0 -20 -23 -17 -287 3 -199 6
-243 17 -243 8 0 17 -15 21 -35 3 -20 12 -35 20 -35 8 0 14 -9 14 -20 0 -13 7
-20 20 -20 16 0 20 -7 20 -34 0 -25 5 -35 20 -39 12 -3 20 -14 20 -26 0 -12 6
-21 15 -21 8 0 15 -7 15 -15 0 -8 8 -15 19 -15 19 0 31 -34 31 -86 0 -15 6
-24 15 -24 12 0 15 -13 15 -60 0 -48 3 -60 16 -60 9 0 18 9 21 20 3 11 11 20
18 20 8 0 16 17 20 40 4 25 12 40 21 40 10 0 14 13 14 44 0 63 11 106 26 106
9 0 14 12 14 35 0 28 4 35 20 35 13 0 20 7 20 20 0 13 7 20 20 20 13 0 20 7
20 20 0 11 6 20 14 20 7 0 16 9 19 20 3 11 12 20 21 20 9 0 16 8 16 20 0 11 6
20 14 20 8 0 17 13 21 29 3 17 14 31 26 34 10 3 19 12 19 21 0 9 7 16 15 16 8
0 15 9 15 20 0 13 7 20 19 20 14 0 21 10 25 35 4 21 13 35 21 35 9 0 15 10 15
25 0 31 -29 34 -37 5 -4 -15 -14 -20 -40 -20 -26 0 -36 -5 -40 -20 -4 -17 -14
-20 -54 -20 -47 0 -48 -1 -54 -34 -6 -29 -12 -35 -41 -41 -19 -3 -34 -12 -34
-19 0 -10 -33 -15 -134 -20 -144 -8 -206 -2 -206 20 0 8 -9 14 -20 14 -13 0
-20 7 -20 20 0 11 -6 20 -14 20 -17 0 -26 44 -26 135 0 91 9 135 26 135 11 0
14 18 14 75 0 62 -3 75 -16 75 -9 0 -18 -9 -21 -20z"/>
<path d="M5800 3745 c0 -8 7 -15 15 -15 8 0 15 7 15 15 0 8 -7 15 -15 15 -8 0
-15 -7 -15 -15z"/>
<path d="M5610 3630 c0 -11 7 -20 15 -20 8 0 15 9 15 20 0 11 -7 20 -15 20 -8
0 -15 -9 -15 -20z"/>
<path d="M5390 3445 c0 -8 7 -15 15 -15 8 0 15 7 15 15 0 8 -7 15 -15 15 -8 0
-15 -7 -15 -15z"/>
</g>
</svg>
